
<svg width="163" height="51" viewBox="0 0 163 51" xmlns="http://www.w3.org/2000/svg"><g fill="none" fill-rule="evenodd"><path fill="#FFFFFF" d="M67.727 29.507l7.061-7.942-6.819-.002.002-3.299 12.208.003v2.837l-7.063 7.942 7.061.002-.002 3.299-12.448-.004z"/><g fill="#FFFFFF"><path d="M81.622 25.347v-.04c.002-4.043 3.26-7.32 7.604-7.318 4.345 0 7.56 3.24 7.56 7.283v.039c0 4.043-3.258 7.32-7.604 7.32-4.344-.002-7.562-3.24-7.56-7.284m11.183.004v-.042c0-2.03-1.468-3.8-3.619-3.8-2.133-.002-3.562 1.728-3.562 3.76v.038c0 2.032 1.468 3.802 3.599 3.804 2.153 0 3.582-1.728 3.582-3.76M98.327 25.352v-.04c.002-4.044 3.26-7.32 7.604-7.319 4.344 0 7.563 3.24 7.56 7.283v.039c0 4.043-3.26 7.32-7.604 7.32-4.344-.002-7.562-3.24-7.56-7.283m11.182.003v-.042c0-2.03-1.467-3.8-3.618-3.8-2.133-.002-3.562 1.728-3.562 3.76v.038c0 2.032 1.468 3.803 3.6 3.804 2.153 0 3.58-1.728 3.58-3.76M114.448 30.264l2.173-2.594c1.387 1.106 2.936 1.69 4.565 1.69 1.047 0 1.609-.36 1.609-.964v-.04c.002-.583-.461-.905-2.371-1.349-2.998-.685-5.31-1.53-5.31-4.425v-.04c0-2.616 2.073-4.506 5.453-4.506 2.391.002 4.261.646 5.791 1.873l-1.952 2.756c-1.288-.906-2.695-1.389-3.942-1.39-.944 0-1.409.403-1.409.905v.04c0 .643.483.926 2.436 1.369 3.238.705 5.248 1.75 5.248 4.386v.039c-.002 2.876-2.276 4.584-5.695 4.584-2.494 0-4.867-.786-6.596-2.334"/></g><path d="M-.028 50.119l4.104.002 1.006-2.513 5.43.002 1.025 2.512 4.182.002-5.988-14.18-3.762-.002-5.997 14.177zM6.23 44.57l1.587-4.002 1.57 4.002H6.23z" fill="#FFFFFF"/><g fill="#FFFFFF"><path d="M27.032 49.163a7.82 7.82 0 0 1-4.283 1.245c-4.344-.002-7.563-3.24-7.56-7.283v-.04c0-4.043 3.258-7.32 7.604-7.318 4.344 0 7.562 3.238 7.56 7.283v.038c0 1.49-.442 2.897-1.247 4.043l1.447 1.227-1.972 2.192-1.549-1.387zm-2.814-2.476l-1.95-1.67 1.97-2.213 1.91 1.732c.162-.423.241-.886.241-1.369v-.04c0-2.05-1.466-3.84-3.639-3.843-2.13 0-3.56 1.77-3.56 3.8v.041c0 2.032 1.448 3.823 3.6 3.824.523 0 1.004-.1 1.428-.262zM32.097 43.954l.002-7.904h3.962l-.002 7.825c-.002 2.03 1.025 2.996 2.593 2.996 1.57 0 2.594-.924 2.596-2.895l.002-7.924 3.962.002-.002 7.803c-.002 4.546-2.596 6.537-6.598 6.535-4.002-.001-6.517-2.035-6.515-6.438"/></g><path d="M51.149 35.954L45.152 50.13l4.103.002 1.007-2.51h5.43l1.025 2.512 4.184.002-5.99-14.18h-3.762zm.259 8.628l1.59-4 1.568 4.002-3.158-.002zM61.968 36.057l6.657.002c2.153 0 3.64.564 4.587 1.53.822.805 1.245 1.89 1.245 3.28v.04c-.002 2.15-1.15 3.58-2.897 4.322l3.356 4.908-4.504-.002-2.834-4.263h-1.71l-.002 4.263-3.901-.002.003-14.078zm6.475 6.758c1.326.002 2.092-.64 2.092-1.666v-.04c0-1.108-.804-1.67-2.112-1.672h-2.555v3.378h2.575zM76.599 36.062l-.003 14.076 3.921.001.004-14.077zM82.806 43.968l.002-7.904h3.962l-.002 7.825c0 2.03 1.025 2.996 2.594 2.996 1.57 0 2.595-.924 2.595-2.895l.002-7.924 3.964.001-.002 7.803c-.002 4.546-2.597 6.538-6.6 6.536-4.002-.002-6.517-2.035-6.515-6.438M98.038 50.145h3.822l.002-8.043 3.578 5.472h.081l3.602-5.509-.002 8.084h3.881l.004-14.078-4.124-.002-3.359 5.45-3.358-5.45-4.122-.001zM114.496 48.058l2.173-2.593c1.389 1.107 2.937 1.69 4.566 1.69 1.045 0 1.61-.36 1.61-.965v-.04c0-.584-.464-.906-2.374-1.348-2.998-.686-5.308-1.53-5.308-4.427v-.039c.002-2.615 2.072-4.506 5.451-4.506 2.396.002 4.264.647 5.792 1.874l-1.95 2.755c-1.288-.905-2.697-1.388-3.943-1.388-.946 0-1.408.4-1.408.903v.04c0 .645.483.925 2.432 1.37 3.238.703 5.251 1.75 5.25 4.386v.04c0 2.875-2.275 4.585-5.693 4.585-2.495-.002-4.866-.786-6.598-2.337M161.444 28.978c-2.29.246-5.57-2.223-9.78-1.929-2.107.147-3.376.75-4.818 1.446 2.629-2.65 2.351-5.46 1.716-6.72-1.462-2.89-5.072-3.741-7.748-3.743-7.915-.002-10.53 5.23-10.53 9.103 0 2.47 1.302 5.028 3.63 7.171-4.062 2.653-5.078 5.634-5.08 8.66-.002 5.174 4.464 7.966 9.83 7.968 3.493.001 7.457-1.295 10.11-3.39 3.43 2.816 4.872 3.316 7.244 3.338 2.69.024 5.198-1.352 6.204-3.503-2.018-.16-6.037-2.604-8.691-4.934 2.28-2.867 2.61-6.67 2.037-9.944 3.133-.685 5.25-2.11 5.876-3.523m-19.947 17.624c-3.68-.002-6.566-2.235-6.566-5.635.001-1.585.66-3.633 1.544-4.473l9.949 8.993c-1.631 1.143-3.92 1.115-4.927 1.115m9.232-6.758l-12.624-11.09c-1.349-1.196-1.815-2.364-1.813-3.525 0-1.721 1.54-3.872 4.219-3.872 2.25.001 4.177 1.447 4.177 4.167-.002 2.737-1.098 4.75-1.098 4.75h.016l-.016.002c1.216 1.696 5.111 2.392 6.416 2.533 1.179 1.826 1.54 4.811.723 7.035" fill="#FFFFFF"/><path d="M35.022 25.335v-.04c.002-4.043 3.26-7.32 7.607-7.318 4.344 0 7.56 3.24 7.558 7.283v.038c-.001 4.043-3.258 7.32-7.604 7.32-4.344-.002-7.562-3.24-7.56-7.283m11.182.004v-.043c.002-2.03-1.466-3.8-3.618-3.8-2.133-.002-3.56 1.729-3.562 3.76v.039c0 2.031 1.468 3.802 3.6 3.804 2.151 0 3.58-1.729 3.58-3.76M52.016 18.26l11.264.004-.002 3.418-7.36-.002v2.394l6.656.002-.001 3.238-6.657-.002-.002 5.028h-3.901z" fill="#FFFFFF"/><g fill="#FFFFFF"><path d="M10.027.434H9.97L6.203.432.215 14.59h4.234s.953-2.375.993-2.48l5.241.002 1.01 2.48 4.315.002-5.98-14.16zm-3.383 8.51c.082-.21 1.3-3.274 1.44-3.628.14.354 1.339 3.418 1.422 3.628H6.644zM16.85 4.826v.039c0 2.992 2.508 3.813 5.304 4.45 1.932.449 2.274.759 2.274 1.248v.038c-.002.551-.55.867-1.502.865-1.58 0-3.079-.554-4.45-1.647l-.065-.052-2.25 2.686.062.055c1.671 1.499 4.265 2.323 6.563 2.325 3.517 0 5.7-1.765 5.702-4.607v-.042c0-2.711-2.096-3.723-5.245-4.408-1.98-.45-2.332-.722-2.332-1.266v-.04c0-.498.5-.807 1.302-.807 1.234 0 2.599.482 3.84 1.354l.07.05 2.021-2.853-.064-.051C26.518.908 24.632.298 22.314.298c-3.268-.002-5.465 1.819-5.465 4.528M30.558 4.83v.038c0 2.993 2.507 3.814 5.303 4.451 1.934.448 2.274.759 2.272 1.247v.039c0 .55-.546.865-1.5.865-1.58 0-3.077-.555-4.45-1.648l-.066-.051-2.25 2.685.063.056c1.673 1.498 4.004 2.323 6.563 2.325 3.517 0 5.701-1.765 5.701-4.607v-.042c.002-2.711-2.094-3.723-5.242-4.409-1.982-.45-2.333-.721-2.333-1.265v-.04c0-.498.498-.807 1.302-.807 1.235 0 2.598.481 3.84 1.354l.07.05 2.02-2.853-.063-.052C40.225.912 38.341.302 36.021.302 32.755.3 30.558 2.12 30.558 4.83M60.64 7.576v.038c0 4.144 3.114 7.27 7.247 7.27 2.711.002 4.63-.975 6.22-3.168l.051-.07-3.03-2.162-.052.062c-.82.994-1.653 1.655-3.07 1.655-1.838 0-3.227-1.559-3.225-3.624v-.04c0-2.044 1.389-3.584 3.228-3.584 1.171 0 2.086.493 2.968 1.595l.053.068 3.03-2.344-.05-.068C72.59 1.23 70.638.27 68.048.27 63.828.27 60.643 3.41 60.64 7.576"/></g><path fill="#FFFFFF" d="M80.323.552L76.369.55l-.004 14.059 4.041.002L80.41.552zM91.658.455H91.6L87.835.453l-5.99 14.159h4.236l.994-2.48 5.238.002 1.013 2.48 4.312.001-5.98-14.16zm-3.384 8.51l1.44-3.628 1.422 3.628h-2.862zM108.966.559L96.697.555v3.544l4.166.002-.001 10.516h4.02l.002-10.516 4.168.001V.559zM115.119.561l-3.955-.002-.003 14.059 4.039.002.003-14.059zM51.492.265c-4.252-.001-7.586 3.208-7.588 7.306v.04c0 4.076 3.314 7.268 7.544 7.268 4.254.002 7.586-3.207 7.588-7.305v-.038c0-4.076-3.313-7.269-7.544-7.27zm3.444 7.348c-.001 2.066-1.482 3.624-3.447 3.624-1.944 0-3.465-1.611-3.465-3.665v-.04c0-2.065 1.475-3.622 3.428-3.622 1.954 0 3.484 1.609 3.484 3.664v.039zM124.665.285c-4.252-.002-7.586 3.207-7.586 7.305v.04c-.002 4.076 3.312 7.269 7.542 7.269 4.254.002 7.586-3.207 7.588-7.305v-.039c0-4.076-3.312-7.268-7.544-7.27zm3.442 7.347c0 2.067-1.48 3.624-3.446 3.624-1.943 0-3.462-1.61-3.462-3.664v-.04c0-2.065 1.473-3.623 3.426-3.623 1.954 0 3.484 1.61 3.482 3.665v.038zM147.315.57L143.42.566l-.002 7.175-5.582-7.175-3.72-.001-.003 14.059 3.98.002.004-7.456 5.8 7.456 3.5.001.006-14.059h-.087z"/></g></svg>