

<svg width="82px" height="83px" viewBox="0 0 82 83" version="1.1" xmlns="http://www.w3.org/2000/svg" xmlns:xlink="http://www.w3.org/1999/xlink">
    <!-- Generator: Sketch 46.1 (44463) - http://www.bohemiancoding.com/sketch -->
    <desc>Created with Sketch.</desc>
    <defs>
        <polygon id="path-1" points="9.95755534e-20 0.714165238 9.95755534e-20 82.6576463 81.9435729 82.6576463 81.9435729 0.714165238"></polygon>
    </defs>
    <g id="Page-1" stroke="none" stroke-width="1" fill="none" fill-rule="evenodd">
        <g id="Widescreen-Monitor-Copy" transform="translate(-866.000000, -5230.000000)">
            <g id="Group-20" transform="translate(866.000000, 5230.000000)">
                <path d="M56.1251171,35.2958387 L57.8499143,37.4100471 C58.4377046,38.1190691 59.0457002,38.8317649 59.7749276,39.4820079 C60.1331123,39.8089663 60.539055,40.1120457 60.9927557,40.3710408 C61.1103137,40.4316567 61.2241981,40.4959462 61.343593,40.5528884 L61.7238199,40.7035097 C61.8487253,40.7531045 61.9883255,40.7769835 62.1224152,40.8137204 C62.2509943,40.8522941 62.4052893,40.8724994 62.5614211,40.8853573 C62.715716,40.8982152 62.8865426,40.9147468 62.9820585,40.9018889 L63.1528851,40.8945415 L63.2392168,40.8908679 L63.2814642,40.889031 L63.3751433,40.8816836 L64.0327337,40.8173941 C64.4717396,40.7659624 64.916256,40.7622887 65.3570988,40.7365729 C66.0165261,40.7126939 66.6777902,40.7182044 67.3390543,40.747594 L67.3390543,33.8190156 C67.3390543,27.3735273 62.7983741,23 55.6787638,23 C48.1660688,23 42.6720661,27.5976224 42.6720661,34.4931376 L42.6720661,50.7492136 C42.6720661,57.6447288 48.1660688,62.2423512 55.6787638,62.2423512 C62.7983741,62.2423512 67.3390543,57.8688239 67.3390543,51.4233356 L67.3390543,47.0240925 C66.3912424,46.9377608 65.4562884,46.9138818 64.5470503,46.946945 C64.2586656,46.9175555 63.9666073,46.8918396 63.6672016,46.8771449 C59.2587742,46.6310077 57.368661,56.6620169 50.5319248,55.2127464 C50.6788724,54.9702829 50.82582,54.7241457 50.9525623,54.4688242 C51.0811414,54.2135028 51.2023732,53.9545077 51.3052365,53.6881652 C51.4136103,53.4236596 51.5091262,53.1536434 51.5936211,52.8799535 C51.6836265,52.6081005 51.7571003,52.3325738 51.8269004,52.0552102 C52.1079376,50.9439192 52.2677431,49.8087491 52.4973487,48.6992949 C52.6149068,48.1464046 52.7453227,47.5953512 52.9308441,47.0700136 C53.0226863,46.8055079 53.1310601,46.5501865 53.2522919,46.3003756 C53.3147446,46.177307 53.3845447,46.059749 53.4506711,45.9385172 C53.5259818,45.822796 53.5957819,45.7052379 53.6784399,45.5950273 C53.8400822,45.3746059 54.0145825,45.1633687 54.2129617,44.9760106 C54.4095041,44.7868156 54.6207412,44.6123153 54.84851,44.461694 C55.072605,44.3037254 54.9183101,42.8985392 54.7585046,42.8287391 C54.6042096,42.7479179 54.4425673,42.6817915 54.2956197,42.5917861 C53.996214,42.415449 53.7078294,42.2189066 53.4506711,41.9837905 C53.1861655,41.7615323 52.9528862,41.4988635 52.7324648,41.2288473 C52.5120435,40.9569943 52.3173379,40.6630991 52.1318166,40.3618566 C51.9536427,40.0569403 51.7883266,39.7428399 51.6377054,39.4195552 C51.334626,38.7748227 51.0829782,38.1007007 50.8552095,37.4137207 C50.4015088,36.0415977 50.0378136,34.6253904 49.6153393,33.2146936 C49.405939,32.5075084 49.1818439,31.80216 48.9265225,31.1004853 C48.7997802,30.749648 48.6583432,30.4024843 48.5132324,30.0571575 C48.4893535,30.0002153 48.4599639,29.9432732 48.4342481,29.886331 C49.8394343,30.1545103 51.1693099,30.7478112 52.3412169,31.5909229 C53.7647716,32.6030243 54.9770891,33.9145315 56.1251171,35.2958387 L56.1251171,35.2958387 Z M30.8758492,36.6955144 L25.1577515,36.6955144 L25.1577515,23.9661803 L15,23.9661803 L15,61.4102605 L24.6489455,61.4102605 C25.0732566,58.1884349 25.5343046,55.8923789 25.7253365,53.0820065 C25.8098313,51.8641784 24.8014036,51.8917311 23.6992967,51.0375982 C23.2033486,50.6536977 22.2702315,49.4817907 21.7228518,49.2411641 C21.2213932,49.0115585 20.9899507,49.2227956 20.5656396,49.1640166 C19.8841702,49.0740112 19.9998914,48.7121528 19.8235543,48.6056158 C19.3110746,48.6497001 19.3551589,48.0968098 19.7004857,47.999457 C19.2688272,47.7918936 19.0171795,47.4024825 19.6876278,47.1067505 C20.1174495,46.9193923 19.9007018,45.9862752 20.3874656,45.7915696 C20.7364662,45.6538063 21.270988,46.0028068 21.8459204,45.8870856 C22.4190159,45.7695275 24.3881135,45.4168533 24.8418142,45.3158269 C25.0126407,44.8070209 25.5140993,44.2173937 26.3792532,44.0888146 C26.878875,43.3522398 27.1286859,42.1050222 27.2076702,41.6825479 C27.2480808,41.4584529 26.9578593,41.1792525 27.1635859,40.8008625 C27.4611548,40.2553196 28.9434885,40.8743363 28.807562,41.4529423 C28.7451093,41.7266322 28.3207981,41.9507273 28.2105874,42.202375 C27.9571029,42.7883285 27.4887074,44.863963 27.624634,44.7684471 C28.1481347,44.3937308 29.0077781,42.9426234 29.1106414,42.5789282 C29.1583993,42.4081016 29.0812518,41.954401 29.2612626,41.6807111 C29.5918947,41.1792525 30.9934072,42.2042118 30.8611544,42.7075073 C30.7380858,43.1630448 30.1998903,43.2052922 30.1356007,43.3357082 C30.0088584,43.5836823 29.4706629,44.5700679 29.0885992,45.7383011 C29.4559682,46.2232282 29.7553739,46.5905971 29.8968109,46.9083712 C30.3321431,46.8330606 30.7858438,45.8099381 31.7171241,45.6409484 C32.9055626,45.4186902 33.6733637,46.3885442 35.0565078,46.4032389 C34.5660703,47.6100459 33.8258218,48.342947 33.0451628,48.484384 C32.0734719,48.6588843 31.0485126,48.1096677 30.5121539,48.6497001 C31.4654763,51.2672038 31.753861,53.6440809 31.658345,59.5642316 C31.6491608,60.1483482 31.6418134,60.7692017 31.6381397,61.4102605 L41.0336006,61.4102605 L41.0336006,23.9661803 L30.8758492,23.9661803 L30.8758492,36.6955144 Z" id="Fill-50" fill="#FFFFFF"></path>
                <g id="Group-54">
                    <mask id="mask-2" fill="white">
                        <use xlink:href="#path-1"></use>
                    </mask>
                    <g id="Clip-53"></g>
                    <path d="M70.8320398,76.5712613 L70.2662917,74.9860642 L69.6344171,74.9860642 L69.6344171,77.1994622 L70.0403597,77.1994622 L70.0403597,75.4140491 L70.6575396,77.1994622 L71.0120506,77.1994622 L71.6237199,75.4140491 L71.6237199,77.1994622 L72.0296626,77.1994622 L72.0296626,74.9860642 L71.4014617,74.9860642 L70.8320398,76.5712613 Z M67.3714243,75.35527 L68.0951412,75.35527 L68.0951412,77.1994622 L68.5341471,77.1994622 L68.5341471,75.35527 L69.2578639,75.35527 L69.2578639,74.9860642 L67.3714243,74.9860642 L67.3714243,75.35527 Z M81.2781759,43.2086501 C82.1653719,42.3710489 82.1653719,40.9989258 81.2781759,40.1631615 C80.3909799,39.3273971 80.2770955,37.8505739 81.0210177,36.8825568 C81.7649398,35.9163764 81.5518658,34.5662955 80.5452749,33.8774788 C79.5368471,33.188662 79.1933571,31.7485757 79.7774738,30.6776952 C80.3615904,29.6068147 79.9391161,28.3044918 78.8351724,27.7828279 C77.7330656,27.2593271 77.1673174,25.8927146 77.5769338,24.7446867 C77.988387,23.5948219 77.3656966,22.3733201 76.1956265,22.0279933 C75.0237195,21.6863402 74.2504079,20.4244278 74.4763398,19.226805 C74.7022717,18.0255086 73.8958969,16.9178912 72.6854162,16.7617594 C71.4767723,16.6056276 70.5142657,15.4796418 70.5510026,14.2618137 C70.5859026,13.0421488 69.6142118,12.0722947 68.3963837,12.1071948 C67.1785556,12.1420948 66.0525698,11.1832619 65.896438,9.97094435 C65.7403062,8.76046366 64.630852,7.95592566 63.4313923,8.18185756 C62.2337696,8.40778947 60.9700204,7.63264098 60.6283673,6.46257088 C60.2848773,5.29250077 59.0615387,4.6698104 57.9153476,5.07942678 C56.7654827,5.49088001 55.3988703,4.92329498 54.8753695,3.82118813 C54.3537056,2.71908128 53.0495458,2.29844383 51.9786653,2.88072362 C50.9114585,3.46484025 49.4695354,3.11951344 48.7807186,2.11292251 C48.0919018,1.10633159 46.7381473,0.893257601 45.7738038,1.63717972 C44.8076234,2.38110185 43.3326371,2.26538063 42.4950359,1.37818461 C41.6574347,0.492825446 40.2871485,0.492825446 39.4495473,1.37818461 C38.6119461,2.26538063 37.1369598,2.38110185 36.1707794,1.63717972 C35.2064359,0.893257601 33.8508445,1.10633159 33.1620277,2.11292251 C32.4732109,3.11951344 31.0349615,3.46484025 29.964081,2.88072362 C28.8932005,2.29844383 27.5890408,2.71908128 27.0673768,3.82118813 C26.5457129,4.92329498 25.1791004,5.49088001 24.0292356,5.07942678 C22.8812077,4.6698104 21.6597059,5.29250077 21.3143791,6.46257088 C20.972726,7.63264098 19.7108136,8.40778947 18.5131909,8.18185756 C17.3137312,7.95592566 16.204277,8.76046366 16.0481452,9.97094435 C15.8920134,11.1832619 14.7660276,12.1420948 13.5481995,12.1071948 C12.3266977,12.0722947 11.3586806,13.0421488 11.3935806,14.2618137 C11.4284807,15.4796418 10.4678109,16.6056276 9.25733016,16.7617594 C8.04868632,16.9178912 7.24231148,18.0255086 7.46824338,19.226805 C7.69417528,20.4244278 6.92086364,21.6863402 5.75079354,22.0279933 C4.57888659,22.3733201 3.95619622,23.5948219 4.36764944,24.7446867 C4.77726582,25.8927146 4.21151764,27.2593271 3.10941079,27.7828279 C2.0054671,28.3044918 1.5829928,29.6068147 2.16710943,30.6776952 C2.75122606,31.7485757 2.40589925,33.188662 1.40114517,33.8774788 C0.392717407,34.5662955 0.179643416,35.9163764 0.921728695,36.8825568 C1.66932451,37.8505739 1.55176644,39.3273971 0.66457043,40.1631615 C-0.222625584,40.9989258 -0.222625584,42.3710489 0.66457043,43.2086501 C1.55176644,44.0462513 1.66932451,45.5212376 0.921728695,46.4855811 C0.179643416,47.4517614 0.392717407,48.805516 1.40114517,49.4961697 C2.40589925,50.1831496 2.75122606,51.6232359 2.16710943,52.6922795 C1.5829928,53.76316 2.0054671,55.0673198 3.10941079,55.5889837 C4.21151764,56.1106476 4.77726582,57.4772601 4.36764944,58.6271249 C3.95619622,59.7751529 4.57888659,60.9966546 5.75079354,61.3401446 C6.92086364,61.6854714 7.69417528,62.9455469 7.46824338,64.1450065 C7.24231148,65.3444661 8.04868632,66.4539204 9.25733016,66.6100522 C10.4678109,66.766184 11.4284807,67.890333 11.3935806,69.1099979 C11.3586806,70.3278259 12.3266977,71.29768 13.5481995,71.2627799 C14.7660276,71.2278799 15.8920134,72.1885497 16.0481452,73.3990304 C16.204277,74.6095111 17.3137312,75.4140491 18.5131909,75.189954 C19.7108136,74.9640221 20.972726,75.7373337 21.3143791,76.9074038 C21.6597059,78.0774739 22.8812077,78.7020012 24.0292356,78.2905479 C25.1791004,77.8809316 26.5457129,78.4466797 27.0673768,79.5487866 C27.5890408,80.6508934 28.8932005,81.0752046 29.964081,80.4892511 C31.0349615,79.9051345 32.4732109,80.2504613 33.1620277,81.2552154 C33.8508445,82.2636431 35.2064359,82.478554 36.1707794,81.732795 C37.1369598,80.9888729 38.6119461,81.1064309 39.4495473,81.9936269 C40.2871485,82.8789861 41.6574347,82.8789861 42.4950359,81.9936269 C43.3326371,81.1064309 44.8076234,80.9888729 45.7738038,81.732795 C46.7381473,82.478554 48.0919018,82.2636431 48.7807186,81.2552154 C49.4695354,80.2504613 50.9114585,79.9051345 51.9786653,80.4892511 C53.0495458,81.0752046 54.3537056,80.6508934 54.8753695,79.5487866 C55.3988703,78.4466797 56.7654827,77.8809316 57.9153476,78.2905479 C59.0615387,78.7020012 60.2848773,78.0774739 60.6283673,76.9074038 C60.9700204,75.7373337 62.2337696,74.9640221 63.4313923,75.189954 C64.630852,75.4140491 65.7403062,74.6095111 65.896438,73.3990304 C66.0525698,72.1885497 67.1785556,71.2278799 68.3963837,71.2627799 C69.6142118,71.29768 70.5859026,70.3278259 70.5510026,69.1099979 C70.5142657,67.890333 71.4767723,66.766184 72.6854162,66.6100522 C73.8958969,66.4539204 74.7022717,65.3444661 74.4763398,64.1450065 C74.2504079,62.9455469 75.0237195,61.6854714 76.1956265,61.3401446 C77.3656966,60.9966546 77.988387,59.7751529 77.5769338,58.6271249 C77.1673174,57.4772601 77.7330656,56.1106476 78.8351724,55.5889837 C79.9391161,55.0673198 80.3615904,53.76316 79.7774738,52.6922795 C79.1933571,51.6232359 79.5368471,50.1831496 80.5452749,49.4961697 C81.5518658,48.805516 81.7649398,47.4517614 81.0210177,46.4855811 C80.2770955,45.5212376 80.3909799,44.0462513 81.2781759,43.2086501 L81.2781759,43.2086501 Z M40.9704548,79.0252858 C20.3500356,79.0216121 3.63291154,62.3063249 3.63291154,41.6859058 C3.63291154,21.0636498 20.3500356,4.34652573 40.9704548,4.34652573 C61.5927107,4.34652573 78.3098348,21.0636498 78.3098348,41.6859058 C78.3098348,62.3063249 61.5927107,79.0216121 40.9704548,79.0252858 L40.9704548,79.0252858 Z M41.1651603,6.39460762 C21.8415535,6.39460762 6.12183618,22.114325 6.12183618,41.4379317 C6.12183618,60.7615385 21.8415535,76.4830927 41.1651603,76.4830927 C60.4887671,76.4830927 76.2103213,60.7615385 76.2103213,41.4379317 C76.2103213,22.114325 60.4887671,6.39460762 41.1651603,6.39460762 L41.1651603,6.39460762 Z M41.1651603,75.5885493 C22.3356648,75.5885493 7.01454273,60.2692641 7.01454273,41.4379317 C7.01454273,22.6084362 22.3356648,7.28731417 41.1651603,7.28731417 C59.9964927,7.28731417 75.3157779,22.6084362 75.3157779,41.4379317 C75.3157779,60.2692641 59.9964927,75.5885493 41.1651603,75.5885493 L41.1651603,75.5885493 Z" id="Fill-52" fill="#FFFFFF" mask="url(#mask-2)"></path>
                </g>
            </g>
        </g>
    </g>
</svg>