<svg width="70px" height="69px" viewBox="0 0 70 69" version="1.1" xmlns="http://www.w3.org/2000/svg" xmlns:xlink="http://www.w3.org/1999/xlink">
    <!-- Generator: Sketch 47.1 (45422) - http://www.bohemiancoding.com/sketch -->
    <desc>Created with Sketch.</desc>
    <defs>
        <polygon id="path-1" points="13.9837778 0.0847621849 13.9837778 25.9375017 0.0913888889 25.9375017 0.0913888889 0.0847621849 13.9837778 0.0847621849"></polygon>
    </defs>
    <g id="Page-1" stroke="none" stroke-width="1" fill="none" fill-rule="evenodd">
        <g>
            <path d="M35.0874647,1.85945966 C35.4543499,4.32669498 36.0807137,8.66239567 37.3286599,11.1055791 C38.6592894,13.7058134 41.4763521,16.6985649 44,18 L44,1.14306633 C41.1208956,0.439193147 38.1063959,0.044479426 35,0 C35,0.454129448 35.0062975,1.31735979 35.0874647,1.85945966" id="Fill-1" fill="#FFFFFF"></path>
            <g id="Group-5" transform="translate(56.000000, 7.000000)">
                <mask id="mask-2" fill="white">
                    <use xlink:href="#path-1"></use>
                </mask>
                <g id="Clip-4"></g>
                <path d="M0.101833333,0.0847621849 L0.0913888889,8.14782101 C2.63394444,9.76309832 6.65083333,12.7190143 9.05772222,16.5303084 C11.2192778,19.9519303 12.7881667,22.7136109 13.9838333,25.9375017 C13.5088333,15.4165689 8.17605556,6.11621597 0.101833333,0.0847621849" id="Fill-3" fill="#FFFFFF" mask="url(#mask-2)"></path>
            </g>
            <path d="M48,66 C49.3824182,65.4195573 50.7183084,64.7411785 52,63.9734507 L52,4.02644058 C50.7183084,3.25860406 49.3824182,2.58033397 48,2 L48,66 Z" id="Fill-6" fill="#FFFFFF"></path>
            
            <path d="M40.0223681,37 C40.0197041,38.9455269 39.994917,58.2503476 40.00094,68.7771218 C40.00094,68.8518529 40.0011717,68.9261456 40.0011717,69 C41.3593649,68.8118575 42.6936976,68.5553394 44,68.2345001 L44,39.4605354 L43.8568372,39.3792298 C43.8568372,39.3792298 42.1298493,38.3738674 40.0223681,37" id="Fill-8" fill="#FFFFFF"></path>
            
            <path d="M63.9361687,29.2985008 C61.9800995,25.918108 58.6066231,22.2388305 56.1522404,21.0571538 C56.1012676,21.0326289 56.0542505,21.0141818 56.010172,21 L56,28.5027191 C58.0598233,30.5339191 61.0515119,33.9477938 62.4498183,37.7838178 C64.222001,42.6417863 64.9726922,46.0979932 65.2312862,51 C66.8763193,48.389691 68.1541444,45.5557783 69,42.5593611 C68.8748848,42.0739801 68.7440055,41.5956367 68.6383301,41.2767056 C67.5683521,38.0420763 65.7024743,32.3537779 63.9361687,29.2985008" id="Fill-10" fill="#FFFFFF"></path>
            
            <path d="M34.8500083,14.9298962 C32.4489227,10.8124464 31.5930654,8.02717387 31.3692677,3.52969557 C31.2934336,1.97918783 31.2111711,0.827622595 31.1608329,0 C13.6346622,1.90604654 0,16.5775976 0,34.3950986 C0,48.7376779 8.83543282,61.0423595 21.4238898,66.2901646 C21.4164807,66.2856821 21.4122314,66.2828396 21.4122314,66.2828396 C21.4122314,66.2828396 21.4176793,66.2860101 21.4272675,66.2916953 C21.4980895,66.3212142 21.5691295,66.3499678 21.6401695,66.3790493 C21.8702867,66.4357912 22.2278836,66.4098802 22.4877461,65.8595166 C22.7695089,65.33736 22.6287364,64.9392921 22.4877461,63.8772676 C22.3473005,62.8160083 21.8544879,61.3999756 21.3848832,60.5034756 C20.9158233,59.6068662 19.6955048,57.601658 19.2735143,57.0826719 C18.8513059,56.5631392 18.4289885,56.3037009 18.3582754,55.9260776 C18.2882161,55.5485636 18.1474436,53.8737485 17.9599286,53.5200683 C17.7719777,53.1658414 17.6075616,53.0243693 17.6075616,52.835667 C17.6075616,52.6468554 17.6075616,52.1986053 17.7018094,52.0804204 C17.7952945,51.9623448 17.654849,51.561325 19.3439005,51.4436867 C21.033061,51.3253924 22.4173598,51.2072075 23.1681826,51.2072075 C23.9187874,51.2072075 28.2824067,51.5848308 28.7989718,51.8682123 C29.3151012,52.1512658 30.0013124,52.6171178 30.2827484,54.3396005 C30.4296224,54.6549061 30.5378167,54.7727631 30.6759742,55.3127403 C30.9810539,56.6104788 31.7608592,59.7367494 30.7230437,62.8867444 C29.703424,65.9786855 28.9107617,66.3551062 28.423506,67.0160017 C28.1094919,67.3544851 28.1008843,67.4605345 28.0713569,67.6524074 C28.0394325,67.8764231 28.1449029,68.0181138 28.235882,68.101204 C28.4725366,68.317348 28.5142672,68.3462109 28.6644099,68.4279892 C30.7315423,68.8033166 32.8619787,69 35.0389397,69 C35.3718034,69 35.7034685,68.9949709 36.0341531,68.9858965 C36.036986,66.6290854 36.0714164,37.2647733 36.0750119,33.5531538 C35.0413368,32.6854074 34.1622717,31.8382149 33.6491931,31.117735 C33.1281607,30.3328601 33.2493209,30.5070216 32.6760981,29.5831893 C32.4678812,29.3274681 32.166833,29.4206166 32.1201994,29.5133279 C31.8421411,29.9319497 31.355866,31.3265539 31.2861335,32.3027549 C31.2168368,33.278956 31.1997306,33.5404716 30.8690461,34.5342747 C30.8690461,35.5101478 30.7301259,38.5090498 30.8690461,38.997533 C31.0080752,39.4850322 31.1473223,40.3918092 31.1473223,40.9494978 C31.1473223,41.5076237 31.355866,43.5298873 30.3132564,45.2033905 C29.2710826,46.877331 27.5337631,48.5508342 23.0858111,48.8289678 C18.638077,49.1086321 11.4801463,49.3875311 10.7160308,48.9693466 C9.95126155,48.5508342 8.37607007,47.3654862 8.35286223,44.9940249 C8.49178241,44.3840769 8.72331606,43.8669494 8.77005861,43.7391435 L9.53417412,41.9262455 C9.60412452,41.2981488 9.48786739,41.0193592 9.20991806,40.3918092 C8.93251351,39.7642592 8.83913736,39.2762133 8.77005861,38.997533 C8.70043509,38.7184153 8.61337843,38.4391884 8.77005861,37.9509238 C8.89372482,37.5637889 8.97849337,36.9750507 8.97849337,36.9750507 L8.90876089,36.2776393 C8.90876089,36.2776393 8.5957274,35.7199507 8.77005861,35.3716276 C8.88195746,35.1467373 9.32606623,35.0577433 9.60412452,34.7437496 C9.81234136,34.3253465 10.003343,33.7671112 9.60412452,33.4883216 C9.18692813,33.4185695 8.5957274,33.4883216 7.93610167,33.4185695 C7.37987614,33.278956 6.7544629,32.9999477 6.40667213,32.5816539 C6.0595351,32.1633601 5.98991157,31.6055622 6.0595351,31.117735 C6.1287228,30.6290331 7.03241223,28.8162444 7.58820194,27.7009765 C8.14453643,26.584834 11.4106317,21.1455933 11.8278281,20.7966143 C12.2445887,20.4484005 12.3142122,20.5183713 12.8008142,20.5183713 C13.2869804,20.5183713 13.6346622,20.6574381 13.9822351,20.9363371 C14.3293721,21.2152361 14.7460237,21.8425674 14.8854887,22.3309413 C15.0241909,22.8189872 15.0241909,23.6561214 14.9548943,24.0045538 C14.8854887,24.3536422 14.8159741,24.7016372 14.7460237,25.120587 C14.6769449,25.5387715 14.7460237,25.7479184 14.9548943,25.8874225 C15.163438,26.0269267 15.5109019,26.0269267 15.6497131,25.8874225 C15.789287,25.7479184 16.1364241,24.771936 16.483779,24.2835621 C16.8314608,23.7956256 17.1788158,23.1680755 18.1516929,22.9586006 C19.124679,22.7493444 20.9312952,22.8888486 21.4880655,22.8189872 C22.0434194,22.7493444 22.3680023,22.5168011 22.3912101,22.1917651 C22.4138732,21.8665105 22.437081,21.7033913 21.9041723,21.494463 C20.7925929,21.3314531 18.9165711,20.238707 18.0821783,19.611485 C17.2484393,18.9839349 16.9697273,18.5657505 16.6228082,18.3560569 C16.3248107,18.1771942 15.7832944,17.60901 15.0241909,17.3802932 C14.3293721,17.170381 14.005116,17.1944334 13.7041768,16.96189 C13.4285155,16.7490259 12.9395165,16.2643693 13.0784367,15.9154996 C13.2174658,15.5667392 13.6346622,15.4274537 13.9822351,15.0786933 C14.3293721,14.7301516 19.8890124,8.80330238 21.2097893,7.89586941 C22.5301303,6.98985773 24.1337596,6.10276001 24.8928631,5.87393384 C25.8193245,5.59525353 27.3711992,5.68829274 27.7420889,5.87393384 C27.9042169,6.06023092 28.4370167,6.71095875 28.7151839,7.82655465 C28.9932422,8.94225988 30.9392144,16.8218392 31.6340332,18.7746787 C32.3285252,20.7272995 35.8730057,27.9796568 38.5135788,30.28071 C41.080388,32.516931 43.1213707,34.0947711 44,34.5657616 L44,22.7633386 C41.7559214,21.4903085 36.9007971,18.4490961 34.8500083,14.9298962" id="Fill-12" fill="#FFFFFF"></path>
            
            <path d="M60.2008253,44.0061268 C59.3426213,41.1981233 57.7075653,38.0486118 56.0359599,36 L56,62 C58.4847711,60.3449407 60.0256239,58.9151895 62,56.7694716 C61.9942228,56.6608 61.9873846,56.560748 61.979721,56.4723705 C61.694046,53.1466495 61.2065239,47.3022795 60.2008253,44.0061268" id="Fill-14" fill="#FFFFFF"></path>
        </g>
    </g>
</svg>